<svg xmlns="http://www.w3.org/2000/svg" viewBox="0 0 1024 1024" role="img" aria-labelledby="title desc">
  <title id="title">Taiwan Global Talent logo</title>
  <desc id="desc">A geometric community logo with bamboo, people, a bridge, water, sun, birds, and a pavilion.</desc>
  <defs>
    <linearGradient id="forest" x1="224" y1="160" x2="808" y2="820" gradientUnits="userSpaceOnUse">
      <stop offset="0" stop-color="#2351a4"/>
      <stop offset=".55" stop-color="#173b8f"/>
      <stop offset="1" stop-color="#0c2466"/>
    </linearGradient>
    <linearGradient id="sage" x1="256" y1="320" x2="812" y2="820" gradientUnits="userSpaceOnUse">
      <stop offset="0" stop-color="#ffc36f"/>
      <stop offset=".58" stop-color="#f47b20"/>
      <stop offset="1" stop-color="#c84f0b"/>
    </linearGradient>
    <radialGradient id="sun" cx="0" cy="0" r="1" gradientTransform="translate(512 452) rotate(90) scale(164)">
      <stop offset="0" stop-color="#fff6df"/>
      <stop offset=".7" stop-color="#ffd48a"/>
      <stop offset="1" stop-color="#f47b20"/>
    </radialGradient>
  </defs>

  <g fill="none" stroke-linecap="round" stroke-linejoin="round">
    <path d="M236 526a328 328 0 0 1 552-240 328 328 0 0 1 108 240" stroke="url(#forest)" stroke-width="24"/>
    <circle cx="512" cy="470" r="158" fill="url(#sun)" stroke="none"/>
  </g>

  <g fill="url(#forest)">
    <rect x="286" y="356" width="34" height="104" rx="17"/>
    <rect x="286" y="486" width="34" height="104" rx="17"/>
    <rect x="286" y="616" width="34" height="104" rx="17"/>
  </g>

  <g fill="url(#forest)">
    <ellipse cx="238" cy="548" rx="74" ry="20" transform="rotate(32 238 548)"/>
    <ellipse cx="239" cy="646" rx="72" ry="20" transform="rotate(-32 239 646)"/>
    <ellipse cx="372" cy="440" rx="74" ry="20" transform="rotate(-42 372 440)"/>
    <ellipse cx="388" cy="505" rx="72" ry="20" transform="rotate(14 388 505)"/>
  </g>

  <g fill="url(#sage)">
    <ellipse cx="392" cy="388" rx="70" ry="18" transform="rotate(-52 392 388)"/>
    <ellipse cx="396" cy="490" rx="66" ry="18" transform="rotate(22 396 490)"/>
  </g>

  <g fill="url(#forest)">
    <circle cx="512" cy="518" r="48"/>
    <path d="M438 688v-36c0-58 33-100 74-100s74 42 74 100v36H438Z"/>
  </g>

  <g fill="url(#sage)">
    <g transform="translate(-164)">
      <circle cx="512" cy="570" r="42"/>
      <path d="M450 710v-30c0-45 27-76 62-76s62 31 62 76v30H450Z"/>
    </g>
    <g transform="translate(164)">
      <circle cx="512" cy="570" r="42"/>
      <path d="M450 710v-30c0-45 27-76 62-76s62 31 62 76v30H450Z"/>
    </g>
  </g>

  <path fill="url(#forest)" fill-rule="evenodd" d="M206 724c204-116 408-116 612 0 14 8 19 25 11 39s-25 19-39 11c-185-105-371-105-556 0-14 8-31 3-39-11s-3-31 11-39Zm118 24c52-72 125-72 177 0h-54c-34-35-68-35-102 0h-21Zm199 0c52-72 125-72 177 0h-54c-34-35-68-35-102 0h-21Z"/>

  <g fill="url(#forest)">
    <path d="M280 795c92-16 185-16 279 0 80 14 159 12 237-7 20-5 36-1 38 8 2 10-12 19-32 24-86 21-173 23-262 8-84-14-167-14-250 1-22 4-40 0-42-9s11-20 32-25Z"/>
    <path d="M387 866c60-16 119-16 179-1 59 15 118 14 177-3 20-6 37-2 39 8 3 9-11 20-30 26-69 20-138 21-207 3-49-13-98-12-147 1-20 5-37 1-39-8-3-10 9-20 28-26Z"/>
    <path d="M477 929c43-12 86-12 129 0 30 8 59 9 89 2 18-4 33 0 35 9 2 10-10 20-29 24-39 9-78 7-117-4-29-8-58-8-87 0-18 5-34 1-36-9-2-9 2-17 16-22Z"/>
  </g>

  <g fill="none" stroke="url(#forest)" stroke-linecap="round" stroke-linejoin="round">
    <path d="M628 430c18-20 36-20 54 0" stroke-width="16"/>
    <path d="M720 384c16-18 32-18 48 0" stroke-width="14"/>
    <path d="M780 438c17-19 34-19 51 0" stroke-width="15"/>
  </g>

  <g fill="url(#sage)" stroke="url(#sage)" stroke-linecap="round" stroke-linejoin="round">
    <path d="M746 570c56-8 91-35 105-81 14 46 49 73 105 81-31 29-66 44-105 44s-74-15-105-44Z"/>
    <path d="M776 648c43-7 68-28 75-63 7 35 32 56 75 63-23 22-48 33-75 33s-52-11-75-33Z"/>
    <rect x="786" y="680" width="130" height="34" rx="2" stroke="none"/>
    <rect x="803" y="548" width="96" height="58" rx="2" stroke="none"/>
    <path d="M801 714v82" stroke-width="16"/>
    <path d="M901 714v82" stroke-width="16"/>
    <path d="M832 778v-35c0-13 8-22 19-22s19 9 19 22v35" fill="none" stroke-width="12"/>
  </g>
</svg>
